<?xml version="1.0" standalone="no"?>
<!DOCTYPE svg PUBLIC "-//W3C//DTD SVG 20010904//EN"
 "http://www.w3.org/TR/2001/REC-SVG-20010904/DTD/svg10.dtd">
<svg version="1.0" xmlns="http://www.w3.org/2000/svg"
 width="153.000000pt" height="27.000000pt" viewBox="0 0 153.000000 27.000000"
 preserveAspectRatio="xMidYMid meet">
<metadata>
Created by potrace 1.10, written by Peter Selinger 2001-2011
</metadata>
<g transform="translate(0.000000,27.000000) scale(0.100000,-0.100000)"
fill="#0c0d0d" stroke="none">
<path d="M90 141 c0 -64 -3 -80 -16 -85 -9 -4 -22 -2 -28 3 -7 6 -17 6 -26 0
-13 -8 -13 -10 0 -19 24 -16 66 -12 83 8 23 26 25 172 2 172 -12 0 -15 -15
-15 -79z"/>
<path d="M890 125 c0 -80 3 -95 16 -95 12 0 14 7 9 28 -4 21 -1 33 14 46 19
17 20 16 46 -28 15 -25 33 -46 41 -46 19 0 18 3 -16 58 -16 27 -30 54 -30 59
0 5 11 20 25 33 28 26 32 40 11 40 -8 0 -31 -22 -51 -50 -20 -27 -39 -50 -42
-50 -3 0 -3 22 0 50 5 40 3 50 -8 50 -12 0 -15 -19 -15 -95z"/>
<path d="M1357 213 c-4 -3 -7 -15 -7 -25 0 -10 -4 -18 -10 -18 -5 0 -10 -7
-10 -15 0 -8 5 -15 11 -15 8 0 10 -17 5 -55 -5 -45 -3 -55 9 -55 12 0 15 13
15 61 0 50 3 60 15 55 9 -3 15 0 15 9 0 8 -7 15 -16 15 -9 0 -14 6 -11 13 2 6
10 11 16 10 6 -2 11 4 11 12 0 15 -31 21 -43 8z"/>
<path d="M170 160 c-12 -8 -12 -10 2 -15 10 -4 22 -4 28 0 12 7 40 -11 40 -26
0 -5 -16 -9 -35 -9 -41 0 -62 -28 -45 -60 8 -16 20 -19 58 -19 l48 2 -4 56
c-4 59 -20 81 -56 81 -12 0 -28 -4 -36 -10z m70 -90 c0 -15 -7 -20 -24 -20
-27 0 -41 14 -31 30 3 6 17 10 31 10 17 0 24 -5 24 -20z"/>
<path d="M300 100 c0 -54 3 -70 14 -70 11 0 16 15 18 52 2 42 7 54 22 56 27 6
37 -17 31 -65 -5 -34 -3 -43 9 -43 11 0 16 14 18 53 3 48 5 52 28 52 23 0 25
-4 28 -52 2 -37 7 -53 17 -53 11 0 12 13 8 58 -3 31 -10 63 -16 70 -12 15 -39
16 -54 1 -8 -8 -17 -7 -32 3 -17 10 -25 10 -41 0 -12 -7 -20 -8 -20 -2 0 5 -7
10 -15 10 -12 0 -15 -14 -15 -70z"/>
<path d="M547 152 c-21 -23 -22 -86 -1 -106 17 -17 61 -21 83 -7 18 12 -3 24
-28 16 -11 -3 -26 1 -37 12 -17 17 -16 18 29 21 52 3 60 19 31 60 -18 27 -55
29 -77 4z m67 -28 c4 -10 -3 -14 -29 -14 -39 0 -41 2 -20 24 17 17 40 12 49
-10z"/>
<path d="M687 155 c-32 -32 -16 -61 38 -67 18 -2 30 -9 30 -18 0 -19 -41 -26
-60 -10 -10 8 -15 8 -20 -1 -10 -15 13 -29 50 -29 36 0 55 16 55 46 0 23 -17
34 -56 34 -14 0 -24 6 -24 14 0 19 20 25 47 15 14 -5 25 -4 29 2 9 14 2 19
-38 25 -25 4 -39 1 -51 -11z"/>
<path d="M1067 152 c-21 -23 -22 -86 -1 -106 17 -17 61 -21 83 -7 18 12 -3 24
-28 16 -11 -3 -26 1 -37 12 -17 17 -16 18 29 21 41 3 47 6 47 26 0 48 -61 73
-93 38z m67 -28 c4 -10 -3 -14 -29 -14 -39 0 -41 2 -20 24 17 17 40 12 49 -10z"/>
<path d="M1210 150 c-40 -40 -14 -120 38 -120 34 0 59 15 43 24 -6 4 -16 4
-21 1 -16 -10 -50 5 -50 21 0 10 13 14 44 14 l45 0 -10 32 c-14 51 -53 64 -89
28z m58 -12 c19 -19 14 -28 -18 -28 -16 0 -30 4 -30 8 0 9 21 32 30 32 3 0 11
-5 18 -12z"/>
<path d="M1437 152 c-20 -22 -22 -81 -4 -106 15 -21 78 -19 85 3 4 11 -2 12
-23 7 -26 -7 -55 6 -55 25 0 5 20 9 45 9 44 0 45 1 39 28 -4 15 -11 33 -17 40
-14 18 -51 15 -70 -6z m63 -28 c0 -9 -11 -14 -30 -14 -33 0 -39 14 -13 28 21
12 43 5 43 -14z"/>
</g>
</svg>
